<svg id="Capa_1" data-name="Capa 1" xmlns="http://www.w3.org/2000/svg" viewBox="0 0 472.31 154.78"><defs><style>.cls-1{fill:#fff;}</style></defs><title>03C_Marca Principal mas Monograma_en horizontal</title><path class="cls-1" d="M71.66,81.71a9.75,9.75,0,0,1-1.85,1.19c3.88,3,8.43,8.7,10,12.41L87.53,113c3.62,8.34,11.56,17.93,21.43,14.29a9.94,9.94,0,0,0,6.22-5.68,9.77,9.77,0,0,0,.65-2.44c-.48-.2-1-.43-1.42-.66a6.9,6.9,0,0,1-3.59,5.36c-6.91,2.55-13.18-8.57-15.35-13.57l-7.2-16.58C85.5,87.32,80.77,82.05,75,79.93A11.48,11.48,0,0,1,71.66,81.71Z"/><path class="cls-1" d="M79.08,123.17c-4.91,15-16.83,25.33-33.58,23.6-12.77-1.12-23.21-16.35-26-21-5.62-9.08-7.3-19.49-8.6-26.7-3-16.44,5-36.14,16.55-45.36l.43-.33A41.7,41.7,0,0,1,31.25,51a7.22,7.22,0,0,1,6.92,1.1c2.12,1.61,3.37,3.83,5.18,5.65L40.14,44.2s-4.63,1.73-5,1.86a48.87,48.87,0,0,0-6.37,3.13C7.4,60.58-3.3,80.87.9,105.17c2.57,14.84,10,26.65,20.59,34.55a47.16,47.16,0,0,0,9.63,5.93C40,149.48,48.25,151.8,60,149.4a59.06,59.06,0,0,0,11.18-3.12,49.35,49.35,0,0,0,12.77-7.85Z"/><path class="cls-1" d="M17,43.79C24,29.35,38,21.29,52.47,23.36c13.43,2,31.61,15.09,30.08,33.12-.73,8.62-4.25,12.57-7.25,16.19a33.27,33.27,0,0,1-3.89,4l1,.11-.66,1.47a21.55,21.55,0,0,1-5.69,7C78.08,81,88.55,74.26,90,60.61,92.7,34.83,68.52,22.9,50.28,20.14A66.2,66.2,0,0,0,15,24.43Z"/><path class="cls-1" d="M49.89,89C56.89,77.45,68,78.65,68,78.65S63.42,88.86,49.89,89Z"/><path class="cls-1" d="M30.66,100c7-11.58,18.13-10.38,18.13-10.38S44.19,99.87,30.66,100Z"/><path class="cls-1" d="M49.9,89.65c13.53,0,18.24,10.19,18.24,10.19S57,101.16,49.9,89.65Z"/><path class="cls-1" d="M49.9,89.65c13.53,0,18.24,10.19,18.24,10.19S57,101.16,49.9,89.65Z"/><path class="cls-1" d="M30.56,78.84C44.09,78.87,48.79,89,48.79,89S37.67,90.35,30.56,78.84Z"/><path class="cls-1" d="M49.37,90c6.94,11.61.66,20.88.66,20.88S43.17,102,49.37,90Z"/><path class="cls-1" d="M48.67,67.83c6.95,11.61.66,20.88.66,20.88S42.47,79.85,48.67,67.83Z"/><path class="cls-1" d="M13.56,114.05q1.15,3.6,2.3,7.19c1.95-7.45,6.64-13.54,12.65-18.26-.27,0-.51,0-.78,0l-2.11,0,1.09-1.81a29.56,29.56,0,0,1,3.4-4.56A50.51,50.51,0,0,0,14.53,109a5.53,5.53,0,0,0-1.38,2.61A5.81,5.81,0,0,0,13.56,114.05Z"/><path class="cls-1" d="M172.34,153.72c4.18,0,8.42-1.89,8.42-7.11,0-11.55-20.81-8.09-20.81-19.7,0-5.35,4.43-9.21,10.89-9.21a22.74,22.74,0,0,1,11.81,3.66L181,125.08a11,11,0,0,0-9.53-6.72,6.7,6.7,0,0,0-6.92,6.78c0,10.31,20.82,6.66,20.82,19.12,0,6.4-5.48,10.44-13.7,10.44a16,16,0,0,1-12.53-5l2.15-3.85A11.16,11.16,0,0,0,172.34,153.72Z"/><path class="cls-1" d="M241.82,111.43v36.29a15,15,0,0,0,1.44,6.27H235.4a13.08,13.08,0,0,0,1.57-6.27V111.43Z"/><path class="cls-1" d="M212.81,49.21c4.18,0,8.42-1.89,8.42-7.11,0-11.56-20.82-8.1-20.82-19.72,0-5.35,4.43-9.2,10.9-9.2a22.73,22.73,0,0,1,11.81,3.65l-1.69,3.72a11.07,11.07,0,0,0-9.54-6.72A6.7,6.7,0,0,0,205,20.62c0,10.31,20.83,6.66,20.83,19.13,0,6.39-5.48,10.44-13.71,10.44a16,16,0,0,1-12.53-5l2.15-3.85A11.17,11.17,0,0,0,212.81,49.21Z"/><path class="cls-1" d="M238.77,69.91h-4.84V22a15.22,15.22,0,0,0-1.44-6.33l6.28-2v5.75a11.93,11.93,0,0,1,11.17-6.14c9.33,0,16.32,7.25,16.32,18.35s-7.12,18.54-17,18.54A13.93,13.93,0,0,1,238.77,46v23.9Zm.07-25.72A10.34,10.34,0,0,0,248,49c7.64,0,12.73-6.46,12.73-16.84,0-10.71-5.35-17.63-12.67-17.63a8.79,8.79,0,0,0-9.27,8.75Z"/><path class="cls-1" d="M327.7,50.13c-11.1,0-18-7.64-18-18.61,0-11.16,7.11-18.28,19.19-18.28a32,32,0,0,1,11.36,2.09L337.88,19a17.86,17.86,0,0,0-11.36-4.7c-7.51,0-12.4,6.85-12.4,16.06,0,10.64,6.46,17.3,16,17.3A17.35,17.35,0,0,0,343.3,42l.52.52A19.82,19.82,0,0,1,327.7,50.13Z"/><path class="cls-1" d="M192.85,42.08a16.42,16.42,0,0,1-12.45,5.71c-9.37,0-14.78-6.53-16.32-12.92-.18-.73-.58-2.89-.58-2.89a25.6,25.6,0,0,1-.21-3.73c0-8.39,5.31-14.22,13.05-14.22,6.49,0,11.27,4.06,11.27,9.44a6.47,6.47,0,0,1-.27,1.91,12.75,12.75,0,0,0-1.91-1.29,17.44,17.44,0,0,0-7.66-2H177a18,18,0,0,0-5.68.89,12.44,12.44,0,0,0-2.59,1.53,11.49,11.49,0,0,0-1.17,1,10.07,10.07,0,0,0-.83.92,22.27,22.27,0,0,1,11.55-1.8,18.84,18.84,0,0,1,7.55,3,11.17,11.17,0,0,1,2.1,1.83A6.5,6.5,0,0,0,189,29a5.87,5.87,0,0,0,2.91-5.52c0-6.23-5.9-10.29-14.36-10.29-11.21,0-18.48,7.08-18.48,18,0,11.15,7.54,19,18.55,19a19.41,19.41,0,0,0,15.79-7.6Z"/><path class="cls-1" d="M383,49.86c-11,0-18.3-7.36-18.3-18.37s7.42-18.37,18.5-18.37,18.31,7.3,18.31,18.31S394.1,49.86,383,49.86ZM370.12,31.1c0,10.82,5.28,18,13.16,18,9.32,0,12.9-9.77,12.9-17.65s-3.77-17.66-13.09-17.66C375.47,13.77,370.12,20.68,370.12,31.1Z"/><path class="cls-1" d="M167.86,73.48V66.21l-6.44,2a14.92,14.92,0,0,1,1.41,6.23V95.33a14.59,14.59,0,0,1-1.41,6.17h7.91a13.94,13.94,0,0,1-1.54-6.17Z"/><path class="cls-1" d="M328.42,95.37c0-6.25.06-12.44.06-18.7,0-4.69-4.42-10-9.44-10a11.57,11.57,0,0,0-8.41,3.84V95.37a14.9,14.9,0,0,0,1.44,6.26h-7.85a14.9,14.9,0,0,0,1.44-6.26V74.2a15.17,15.17,0,0,0-1.44-6.32l6.41-2v3.58a15.8,15.8,0,0,1,11.08-3.91A11.8,11.8,0,0,1,333.5,77.32l-.06,18.05a14.07,14.07,0,0,0,1.56,6.26h-7.95A14.87,14.87,0,0,0,328.42,95.37Z"/><path class="cls-1" d="M421.1,67.29h-3.91V65.86h3.91c0-.46.06-.85.06-1.3a17.84,17.84,0,0,0-1.5-7.1l6.78-1.89V65.86H438v1.43H426.44V95c0,2.41,1.17,4.56,3.84,4.56a5.39,5.39,0,0,0,5-5l.58.2a8.87,8.87,0,0,1-8.2,7.49A6.75,6.75,0,0,1,421,95.63C421,86.19,421.1,76.74,421.1,67.29Z"/><path class="cls-1" d="M345.23,80.33C345,72,350.5,66.2,358.18,66.2c6.44,0,11.92,4.42,11.92,9.76,0,2.56-1,3.45-1,3.45-1.42-.48-5.14-3-10.14-2.94a9.88,9.88,0,0,0-4.29.85,11.06,11.06,0,0,0-2.41,1.59,11.45,11.45,0,0,0-1.05,1c-.25.28-.68.82-.74.92a17.84,17.84,0,0,1,10.29-1.8,14.28,14.28,0,0,1,8.61,4.9c2.27-.77,4.3-4.73,4.3-8.4,0-6.18-5.86-10.21-14.25-10.21-11.13,0-18.36,7-18.36,17.89,0,11.07,7.49,18.88,18.42,18.88a19.33,19.33,0,0,0,15.68-7.55l-.58-.52a16.35,16.35,0,0,1-12.37,5.66c-9.3,0-14.56-8.22-16.2-12.82A24.32,24.32,0,0,1,345.23,80.33Z"/><path class="cls-1" d="M184.62,74c-.61-2.44-2.64-5.47-9-6.34A13,13,0,0,0,167,69.43c.08.49.15,1.38.22,1.88a9.25,9.25,0,0,1,5.69-2.75c4.29-.35,8.05,1.89,9,9.7C181.94,78.62,185.6,77.94,184.62,74Z"/><path class="cls-1" d="M216.85,82a3.86,3.86,0,0,0,1.08-.53,7.32,7.32,0,0,1-1.1.51Z"/><path class="cls-1" d="M221.72,94.42a16.31,16.31,0,0,1-12.36,5.67c-9.3,0-14.67-6.48-16.2-12.82-.18-.74-.57-2.87-.57-2.87a24,24,0,0,1-.21-3.7c0-8.33,5.27-14.12,13-14.12,6.44,0,11.19,4,11.19,9.37a6.8,6.8,0,0,1-.27,1.9,11.9,11.9,0,0,0-1.9-1.28,17.17,17.17,0,0,0-7.6-2H206a17.72,17.72,0,0,0-5.63.88A12.7,12.7,0,0,0,197.78,77a14.24,14.24,0,0,0-1.17,1c-.27.28-.75.81-.82.92a22.05,22.05,0,0,1,11.46-1.79,18.51,18.51,0,0,1,7.5,3,11.37,11.37,0,0,1,2.08,1.81,7.32,7.32,0,0,0,1.1-.51A5.84,5.84,0,0,0,220.81,76c0-6.18-5.85-10.22-14.25-10.22-11.12,0-18.34,7-18.34,17.89,0,11.07,7.48,18.87,18.41,18.87a19.27,19.27,0,0,0,15.68-7.55Z"/><path class="cls-1" d="M279,102.27c-11,0-18.31-7.36-18.31-18.37s7.43-18.37,18.51-18.37,18.3,7.29,18.3,18.3S290.08,102.27,279,102.27ZM266.1,83.51c0,10.81,5.28,18,13.16,18,9.32,0,12.9-9.77,12.9-17.66s-3.78-17.65-13.09-17.65C271.44,66.18,266.1,73.08,266.1,83.51Z"/><path class="cls-1" d="M396.56,102.09c-11.08,0-18-7.63-18-18.57,0-11.14,7.1-18.24,19.15-18.24a31.86,31.86,0,0,1,11.34,2.08L406.72,71a17.77,17.77,0,0,0-11.33-4.69c-7.5,0-12.38,6.84-12.38,16,0,10.63,6.45,17.27,16,17.27a17.31,17.31,0,0,0,13.16-5.67l.52.52A19.78,19.78,0,0,1,396.56,102.09Z"/><path class="cls-1" d="M239.93,66.73a11.82,11.82,0,0,1,2.17-.22,17.87,17.87,0,0,1,11.34,4.69l2.34-3.65a31.8,31.8,0,0,0-11.33-2.08,27,27,0,0,0-4.52.37Z"/><path class="cls-1" d="M258.84,94.13a17.31,17.31,0,0,1-13.16,5.67c-9.51,0-16-6.64-16-17.26A19.67,19.67,0,0,1,232.49,72V68.71c-4.63,3.12-7.2,8.32-7.2,15,0,10.94,6.91,18.57,18,18.57a19.82,19.82,0,0,0,16.1-7.63Z"/><path class="cls-1" d="M302.89,49.61c0-4.13.27-18.7-.51-24.18-1-6.86-4.31-12.21-11.81-12.21l-1.09.07a29,29,0,0,0-7.65,1.51,16.92,16.92,0,0,0-5.46,3.25c-.86.78-1.83,1.9-1,3a2.25,2.25,0,0,0,1.47.76,11.17,11.17,0,0,0,4-.56c.88-.19,1.76-.37,2.64-.52a6.76,6.76,0,0,1,2.32-.22,3.63,3.63,0,0,1,2.71,2.4c.47,1.31-.59,2.86-1.74,3.87a13.51,13.51,0,0,1-2.61,1.81,14.68,14.68,0,0,1-1.45.67c-3.33,1.33-7.37,2.38-9.49,5.52a8.44,8.44,0,0,0-1.37,4.5c0,.11,0,.22,0,.33,0,7.9,7.05,10.57,13.84,10.57,6.61,0,12.09-2.53,14.1-6.46L302,49.61Zm-3.64-9.43c.4,2.6-1.16,3.82-3.21,5.56a15.73,15.73,0,0,1-10.37,3.18,8.91,8.91,0,0,1-8.81-9.07c0-6.26,4.82-7.54,9.68-10.29a13.49,13.49,0,0,0,1.51-1.27l.41-.33a5.84,5.84,0,0,0,1.73-6.1A4.8,4.8,0,0,0,285.94,19s-5.29-.22-5.82-.42c-.31-.11,6.24-4.39,10.51-4.39a6.32,6.32,0,0,1,4.67,1.78,13.05,13.05,0,0,1,2.78,6.14C298.5,25.82,299.25,40.18,299.25,40.18Z"/><path class="cls-1" d="M472.26,101.82c0-4.12.28-18.7-.51-24.18-1-6.85-4.31-12.21-11.81-12.21l-1.09.07A29,29,0,0,0,451.2,67a16.77,16.77,0,0,0-5.46,3.26c-.86.77-1.83,1.9-1,3a2.31,2.31,0,0,0,1.47.75,11.38,11.38,0,0,0,4-.55c.88-.2,1.76-.37,2.64-.53a6.76,6.76,0,0,1,2.32-.22,3.59,3.59,0,0,1,2.71,2.4c.47,1.32-.59,2.86-1.74,3.87a14,14,0,0,1-4.05,2.48c-3.34,1.33-7.38,2.38-9.5,5.52a8.44,8.44,0,0,0-1.37,4.5v.33c0,7.9,7,10.57,13.83,10.57,6.61,0,12.1-2.52,14.1-6.46l2.11,5.91Zm-3.64-9.43c.4,2.6-1.16,3.82-3.2,5.56-2.72,2.31-6.82,3.31-10.38,3.18a8.93,8.93,0,0,1-8.81-9.07c0-6.25,4.82-7.54,9.68-10.28a14.84,14.84,0,0,0,1.52-1.28l.4-.33a5.82,5.82,0,0,0,1.74-6.1,4.83,4.83,0,0,0-4.26-2.91s-5.29-.22-5.82-.41c-.31-.12,6.24-4.4,10.51-4.4a6.32,6.32,0,0,1,4.67,1.78,13.05,13.05,0,0,1,2.78,6.14C467.88,78,468.62,92.39,468.62,92.39Z"/><path class="cls-1" d="M223.51,154.23c0-4.12.28-18.7-.51-24.18-1-6.85-4.31-12.21-11.81-12.21l-1.09.07a29,29,0,0,0-7.65,1.51,16.77,16.77,0,0,0-5.46,3.26c-.86.77-1.83,1.9-1,3a2.31,2.31,0,0,0,1.47.75,11.38,11.38,0,0,0,4-.55c.88-.2,1.76-.37,2.64-.53a7,7,0,0,1,2.32-.22,3.61,3.61,0,0,1,2.71,2.4c.47,1.32-.59,2.86-1.74,3.87a14,14,0,0,1-4,2.48c-3.34,1.33-7.38,2.38-9.5,5.52a8.46,8.46,0,0,0-1.37,4.5c0,.11,0,.22,0,.33,0,7.9,7,10.57,13.84,10.57,6.61,0,12.1-2.52,14.1-6.46l2.11,5.91Zm-3.64-9.43c.4,2.6-1.16,3.82-3.21,5.56-2.71,2.31-6.81,3.31-10.37,3.18a8.91,8.91,0,0,1-8.81-9.07c0-6.25,4.82-7.54,9.68-10.28a14.84,14.84,0,0,0,1.52-1.28c.13-.11.27-.21.4-.33a5.84,5.84,0,0,0,1.74-6.1,4.83,4.83,0,0,0-4.26-2.91s-5.29-.22-5.82-.41c-.31-.12,6.24-4.4,10.51-4.4a6.32,6.32,0,0,1,4.67,1.78,13.05,13.05,0,0,1,2.78,6.14C219.13,130.44,219.87,144.8,219.87,144.8Z"/><path class="cls-1" d="M276.05,148.47c-3.36,5.15-6.13,6-11.75,6.2-6.79.26-11.3-6.61-11.3-16.54V126.49a15.3,15.3,0,0,0-1.44-6.34l6.86-2V136.3c0,4.9,1.31,17,8.3,17,6.34,0,9.13-6.39,9.13-11.42l0-15.38a14.38,14.38,0,0,0-1.44-6.34l6.86-2v36.44H280Z"/><path class="cls-1" d="M317.9,148.53a12.56,12.56,0,0,1-11.51,6.08c-9.67,0-16.08-7.45-16.08-18.43s6.34-18.5,16.67-18.5a15.48,15.48,0,0,1,10.92,4V101.18h5.17v53.34h-1.26Zm-9-29.61c-7.72,0-12.95,7.19-12.95,17.39,0,9.93,4.91,16.8,12.42,16.8a8.9,8.9,0,0,0,9.55-8.76V123.82A10.36,10.36,0,0,0,308.88,118.92Z"/><path class="cls-1" d="M350.64,49.55a15.34,15.34,0,0,0,1.46-6.38V21.57a15.63,15.63,0,0,0-1.46-6.45l6.23-2.06V43.17a13.42,13.42,0,0,0,1.6,6.38Z"/><polygon class="cls-1" points="354.1 8.6 350.64 3.52 354.1 0 357.5 3.52 354.1 8.6"/></svg>